#!OML:ASF X:\für Bonn\!DataBase\2005_08_12_Daniel\c3d\Daniel.ASF
:FULLY-SPECIFIED
:DEGREES
16
root 1.60024 17.006 0.35149 768.678 -91.6736 -781.023
lowerback 15.9861 -2.34097 0.816396
upperback 5.7142 -3.42679 -3.18486
thorax -3.11685 -1.81784 -3.1741
lowerneck -3.51448 2.87654 -0.962834
upperneck 24.5801 3.27109 0.0299985
head 8.14744 1.1344 0.384765
rclavicle 2.02263e-014 7.95139e-016
rhumerus -168.557 146.624 95.0104
rradius 27.8752
rwrist 316.71
rhand -30.5195 -2.17163
rfingers 7.12502
rthumb -3.8191 -32.1172
lclavicle 2.02263e-014 7.95139e-016
lhumerus 10.8765 -23.8272 81.7521
lradius 34.4212
lwrist 46.5109
lhand -18.4945 15.2075
lfingers 7.12502
lthumb 7.79306 45.0439
rfemur 9.97343 12.8784 11.8436
rtibia 20.1128
rfoot -23.7151 -18.2178
rtoes -13.0039
lfemur 1.6377 -15.5699 -18.7761
ltibia 34.0388
lfoot -27.8699 7.06021
ltoes -0.51909
17
root 1.62148 17.0063 0.355036 764.235 -91.7075 -776.614
lowerback 15.928 -2.30224 1.06338
upperback 5.72282 -3.33909 -3.21241
thorax -3.08548 -1.77252 -3.36223
lowerneck -3.40446 2.82559 -0.789548
upperneck 24.7469 3.17736 -0.0351451
head 8.18899 1.0921 0.32514
rclavicle -2.94201e-014 -2.62396e-014
rhumerus -164.98 148.043 95.2507
rradius 29.2147
rwrist 319.508
rhand -30.3291 -1.59617
rfingers 7.12502
rthumb -3.63524 -31.5449
lclavicle -2.94201e-014 -2.62396e-014
lhumerus 14.3015 -24.826 80.1249
lradius 36.6026
lwrist 45.443
lhand -19.1271 14.1211
lfingers 7.12502
lthumb 7.1825 43.9792
rfemur 9.82208 12.8086 11.8145
rtibia 20.1748
rfoot -23.5028 -18.0677
rtoes -12.9207
lfemur 1.56359 -15.4739 -18.7056
ltibia 34.115
lfoot -27.843 7.07706
ltoes -0.513778
18
root 1.63782 17.0071 0.357833 760.098 -91.7479 -772.523
lowerback 15.8466 -2.26787 1.26727
upperback 5.73414 -3.26245 -3.2163
thorax -3.03531 -1.7326 -3.4997
lowerneck -3.14898 2.78824 -0.572011
upperneck 24.8788 3.09682 -0.127061
head 8.19334 1.0569 0.247631
rclavicle 6.31141e-015 -1.82882e-014
rhumerus -161.424 149.33 95.6351
rradius 30.7483
rwrist 322.548
rhand -30.1732 -1.07495
rfingers 7.12502
rthumb -3.48468 -31.0262
lclavicle 6.31141e-015 -1.82882e-014
lhumerus 17.8679 -25.2434 78.3725
lradius 38.6374
lwrist 44.3958
lhand -20.1082 13.2598
lfingers 7.12502
lthumb 6.2354 43.148
rfemur 9.72794 12.7357 11.8027
rtibia 20.2129
rfoot -23.3178 -17.9435
rtoes -13.0547
lfemur 1.53568 -15.407 -18.6515
ltibia 34.1795
lfoot -27.8245 7.12077
ltoes -0.523324
19
root 1.64793 17.0065 0.360042 755.982 -91.7796 -768.455
lowerback 15.6994 -2.23141 1.52186
upperback 5.75194 -3.17685 -3.24791
thorax -2.94589 -1.6871 -3.69931
lowerneck -2.81842 2.73186 -0.256354
upperneck 25.0086 2.98399 -0.256325
head 8.18557 1.01114 0.137396
rclavicle -2.15681e-014 3.97569e-015
rhumerus -157.712 150.301 96.3527
rradius 32.1279
rwrist 325.372
rhand -30.1619 -0.219755
rfingers 7.12502
rthumb -3.4738 -30.1712
lclavicle -2.15681e-014 3.97569e-015
lhumerus 21.5489 -25.288 76.4965
lradius 40.5593
lwrist 43.4403
lhand -21.3778 12.5509
lfingers 7.12502
lthumb 5.00955 42.4717
rfemur 9.67379 12.7363 11.8403
rtibia 20.2422
rfoot -23.2065 -17.8553
rtoes -12.9733
lfemur 1.54483 -15.3096 -18.5793
ltibia 34.2229
lfoot -27.8122 7.14074
ltoes -0.549927
20
root 1.6526 17.0072 0.361499 752.676 -91.8234 -765.174
lowerback 15.5022 -2.20487 1.72802
upperback 5.75787 -3.11057 -3.26608
thorax -2.84006 -1.65062 -3.85473
lowerneck -2.39679 2.7045 -0.000225447
upperneck 25.128 2.90769 -0.351726
head 8.15593 0.979411 0.0501317
rclavicle 1.79403e-014 6.36111e-015
rhumerus -153.656 150.703 97.797
rradius 33.2045
rwrist 327.722
rhand -30.233 1.09486
rfingers 7.12502
rthumb -3.54246 -28.8555
lclavicle 1.79403e-014 6.36111e-015
lhumerus 25.2343 -24.839 74.6694
lradius 42.3787
lwrist 42.2487
lhand -22.6739 12.0694
lfingers 7.12502
lthumb 3.75806 42.016
rfemur 9.62991 12.7001 11.8553
rtibia 20.2442
rfoot -23.0629 -17.7745
rtoes -12.9331
lfemur 1.55576 -15.2803 -18.5389
ltibia 34.2585
lfoot -27.8472 7.19127
ltoes -0.551835
21
root 1.6551 17.0066 0.362932 750.322 -91.8756 -762.868
lowerback 15.3104 -2.17851 1.91395
upperback 5.76906 -3.0497 -3.30273
thorax -2.73144 -1.61682 -4.01691
lowerneck -1.85122 2.66973 0.25486
upperneck 25.2181 2.82143 -0.460968
head 8.09409 0.94087 -0.0438387
rclavicle 1.80894e-014 7.15625e-015
rhumerus -149.47 151.17 99.5243
rradius 34.0641
rwrist 330.146
rhand -30.3068 2.68429
rfingers 7.12502
rthumb -3.61374 -27.2648
lclavicle 1.80894e-014 7.15625e-015
lhumerus 28.9498 -24.0715 72.8858
lradius 44.1702
lwrist 40.8207
lhand -23.9957 11.8889
lfingers 7.12502
lthumb 2.48146 41.8542
rfemur 9.6509 12.7086 11.8635
rtibia 20.2244
rfoot -22.9915 -17.7142
rtoes -12.928
lfemur 1.60879 -15.2667 -18.5388
ltibia 34.2854
lfoot -27.8787 7.2396
ltoes -0.619343
22
root 1.65362 17.0076 0.363654 747.74 -91.9133 -760.299
lowerback 15.0669 -2.14993 2.11389
upperback 5.77195 -2.98358 -3.33393
thorax -2.60327 -1.5793 -4.18345
lowerneck -1.305 2.64578 0.38856
upperneck 25.3495 2.73362 -0.446657
head 8.04229 0.900042 -0.0757935
rclavicle 2.78299e-014 2.46493e-014
rhumerus -145.222 151.797 101.52
rradius 34.7635
rwrist 332.545
rhand -30.3333 4.45407
rfingers 7.12502
rthumb -3.6393 -25.4946
lclavicle 2.78299e-014 2.46493e-014
lhumerus 32.5413 -23.0974 71.0951
lradius 46.1931
lwrist 39.2042
lhand -25.0825 11.9397
lfingers 7.12502
lthumb 1.43186 41.9146
rfemur 9.65868 12.7602 11.9201
rtibia 20.1905
rfoot -22.9259 -17.7265
rtoes -12.9562
lfemur 1.63221 -15.2295 -18.5005
ltibia 34.3057
lfoot -27.8901 7.30497
ltoes -0.60773
23
root 1.65037 17.0074 0.364187 745.511 -91.9427 -758.092
lowerback 14.8726 -2.14358 2.26892
upperback 5.73622 -2.951 -3.3393
thorax -2.54133 -1.55937 -4.28848
lowerneck -0.60649 2.65169 0.419767
upperneck 25.4765 2.68369 -0.408762
head 7.96033 0.866906 -0.0815306
rclavicle 1.0138e-014 2.8625e-014
rhumerus -140.853 152.444 103.862
rradius 35.2367
rwrist 334.874
rhand -30.3666 6.09661
rfingers 7.12502
rthumb -3.67153 -23.8515
lclavicle 1.0138e-014 2.8625e-014
lhumerus 35.8292 -21.9241 69.2797
lradius 48.403
lwrist 37.3907
lhand -25.8976 12.0351
lfingers 7.12502
lthumb 0.644651 42.0138
rfemur 9.68762 12.7933 11.9772
rtibia 20.1628
rfoot -22.8897 -17.725
rtoes -12.9818
lfemur 1.68141 -15.2118 -18.4646
ltibia 34.3132
lfoot -27.9155 7.33214
ltoes -0.689727
24
root 1.64413 17.0081 0.36303 743.305 -91.9838 -755.91
lowerback 14.6779 -2.12714 2.41936
upperback 5.69199 -2.90683 -3.35932
thorax -2.48728 -1.53371 -4.40819
lowerneck 0.115381 2.66913 0.477592
upperneck 25.7284 2.63398 -0.361247
head 7.91779 0.83172 -0.0888717
rclavicle -2.71838e-014 -2.70347e-014
rhumerus -136.348 153.287 106.547
rradius 35.5099
rwrist 337.143
rhand -30.4308 7.40547
rfingers 7.12502
rthumb -3.73351 -22.5416
lclavicle -2.71838e-014 -2.70347e-014
lhumerus 39.0041 -20.701 67.2391
lradius 50.49
lwrist 35.5793
lhand -26.436 11.735
lfingers 7.12502
lthumb 0.124645 41.7147
rfemur 9.7646 12.9694 12.0854
rtibia 20.1098
rfoot -22.9803 -17.7971
rtoes -12.9243
lfemur 1.74633 -15.1911 -18.4321
ltibia 34.3216
lfoot -27.9488 7.35509
ltoes -0.574439
25
root 1.6367 17.0086 0.360845 741.811 -92.0171 -754.416
lowerback 14.5187 -2.11685 2.52381
upperback 5.59176 -2.8748 -3.3764
thorax -2.51008 -1.51537 -4.49412
lowerneck 1.09661 2.68804 0.557556
upperneck 25.9309 2.57657 -0.328251
head 7.81423 0.790215 -0.108367
rclavicle -2.65874e-014 7.95139e-016
rhumerus -131.993 154.473 109.16
rradius 35.6258
rwrist 339.659
rhand -30.4395 8.24774
rfingers 7.12502
rthumb -3.74187 -21.6992
lclavicle -2.65874e-014 7.95139e-016
lhumerus 42.1694 -19.4422 64.8655
lradius 52.2558
lwrist 34.0273
lhand -26.8568 10.8686
lfingers 7.12502
lthumb -0.281801 40.8481
rfemur 9.81835 13.1653 12.1975
rtibia 20.0685
rfoot -23.0468 -17.9442
rtoes -12.9145
lfemur 1.7877 -15.1576 -18.3945
ltibia 34.317
lfoot -27.9719 7.34979
ltoes -0.568941
26
root 1.62611 17.0087 0.356943 739.712 -92.0403 -752.318
lowerback 14.3737 -2.10675 2.65414
upperback 5.47734 -2.83989 -3.40701
thorax -2.55652 -1.49589 -4.60898
lowerneck 2.18488 2.71471 0.681902
upperneck 26.1558 2.51752 -0.288969
head 7.702 0.748859 -0.134466
rclavicle 5.61567e-015 -2.38542e-014
rhumerus -127.867 156.037 111.598
rradius 35.6782
rwrist 342.48
rhand -30.4327 8.58157
rfingers 7.12502
rthumb -3.73531 -21.3654
lclavicle 5.61567e-015 -2.38542e-014
lhumerus 45.4248 -18.0674 62.1603
lradius 53.5257
lwrist 32.8066
lhand -27.2073 9.36103
lfingers 7.12502
lthumb -0.620288 39.3399
rfemur 9.89482 13.3988 12.3583
rtibia 20.028
rfoot -23.1923 -18.0767
rtoes -12.8358
lfemur 1.8413 -15.0936 -18.3192
ltibia 34.3082
lfoot -27.9646 7.35477
ltoes -0.640161
27
root 1.61381 17.0093 0.352878 738.534 -92.0711 -751.14
lowerback 14.2706 -2.10878 2.71213
upperback 5.3292 -2.82903 -3.42586
thorax -2.65977 -1.49015 -4.66408
lowerneck 3.42121 2.7569 0.791074
upperneck 26.3489 2.47303 -0.243005
head 7.55557 0.710466 -0.156282
rclavicle -2.50966e-014 -3.10104e-014
rhumerus -123.84 157.838 113.998
rradius 35.4834
rwrist 345.437
rhand -30.4818 8.64037
rfingers 7.12502
rthumb -3.78269 -21.3058
lclavicle -2.50966e-014 -3.10104e-014
lhumerus 48.6586 -16.4639 59.1857
lradius 54.359
lwrist 31.9465
lhand -27.629 7.36195
lfingers 7.12502
lthumb -1.02761 37.3392
rfemur 9.9835 13.6185 12.4891
rtibia 19.9873
rfoot -23.2926 -18.2571
rtoes -12.7535
lfemur 1.90169 -15.0434 -18.2769
ltibia 34.2974
lfoot -27.9759 7.32642
ltoes -0.642743
28
root 1.60078 17.0099 0.348771 737.605 -92.0944 -750.2
lowerback 14.2089 -2.11997 2.75627
upperback 5.15606 -2.8318 -3.45505
thorax -2.81281 -1.49245 -4.71835
lowerneck 4.74552 2.79729 0.965808
upperneck 26.521 2.43387 -0.259017
head 7.39226 0.673481 -0.21009
rclavicle -2.48481e-014 -5.56597e-015
rhumerus -119.871 159.92 116.366
rradius 34.9077
rwrist 348.322
rhand -30.5623 8.6632
rfingers 7.12502
rthumb -3.86049 -21.2816
lclavicle -2.48481e-014 -5.56597e-015
lhumerus 51.8559 -14.6084 56.047
lradius 54.9003
lwrist 31.3385
lhand -28.0852 5.40784
lfingers 7.12502
lthumb -1.46818 35.3825
rfemur 10.0632 13.8538 12.6165
rtibia 19.949
rfoot -23.4596 -18.4079
rtoes -12.7832
lfemur 1.9485 -15.0024 -18.2373
ltibia 34.293
lfoot -27.9897 7.30283
ltoes -0.575907
29
root 1.58546 17.0117 0.344984 736.316 -92.1127 -748.886
lowerback 14.1557 -2.13332 2.81924
upperback 4.97419 -2.83509 -3.49072
thorax -2.98082 -1.49547 -4.78991
lowerneck 6.12398 2.8502 1.13133
upperneck 26.6577 2.39392 -0.181912
head 7.2105 0.64116 -0.231617
rclavicle 2.16178e-014 2.62396e-014
rhumerus -116.035 162.309 118.658
rradius 34.0009
rwrist 351.003
rhand -30.6437 8.86797
rfingers 7.12502
rthumb -3.93909 -21.0754
lclavicle 2.16178e-014 2.62396e-014
lhumerus 54.8919 -12.4843 52.8958
lradius 55.2881
lwrist 30.8701
lhand -28.6429 3.79587
lfingers 7.12502
lthumb -2.00681 33.7662
rfemur 10.1202 14.0584 12.7524
rtibia 19.9327
rfoot -23.5999 -18.5645
rtoes -12.7753
lfemur 1.97956 -14.9629 -18.1795
ltibia 34.2906
lfoot -27.9775 7.29286
ltoes -0.636344
30
root 1.56981 17.0114 0.340202 735.506 -92.1278 -748.064
lowerback 14.231 -2.14519 2.84105
upperback 4.74864 -2.84076 -3.53495
thorax -3.26309 -1.50262 -4.84258
lowerneck 7.45959 2.90389 1.3186
upperneck 26.8578 2.34405 -0.0637805
head 7.06141 0.605708 -0.242954
rclavicle -7.10655e-015 -1.59028e-015
rhumerus -112.529 164.937 120.891
rradius 33.0088
rwrist 353.181
rhand -30.774 9.27283
rfingers 7.12502
rthumb -4.06489 -20.6681
lclavicle -7.10655e-015 -1.59028e-015
lhumerus 57.6335 -10.1165 50.0933
lradius 55.3941
lwrist 30.1473
lhand -29.0306 2.71278
lfingers 7.12502
lthumb -2.38128 32.6792
rfemur 10.1976 14.2534 12.8783
rtibia 19.9146
rfoot -23.7334 -18.7191
rtoes -12.7595
lfemur 2.02052 -14.8868 -18.1221
ltibia 34.2982
lfoot -27.9869 7.24238
ltoes -0.67631
